<svg width="214" height="241" viewBox="0 0 214 241" fill="none" xmlns="http://www.w3.org/2000/svg">
<g clip-path="url(#clip0_16907_2445)">
<path d="M205.57 151.04C203.26 153.38 199.51 155.92 196.44 157.14C189.54 159.88 169.27 160.05 161.55 159.2C157.25 158.73 151.08 155.29 148.05 152.23C146.07 150.24 142.13 143 140.36 142.45C132.59 140.01 122.01 148.69 118.46 155.06C111.38 167.75 117.58 179.79 125.87 189.9C132.14 197.55 137.25 201.72 147.55 202.17C154.57 202.47 162.43 201.54 169.57 201.63C172.51 201.67 178.83 201.81 179.28 205.44C179.73 209.07 173.15 218.35 170.79 221.36C164.12 229.89 153.35 239.15 142.1 240.11C119.31 242.06 93.7599 238.62 70.6799 240.09C56.2999 237.54 45.2799 226.43 37.9599 214.39C34.4999 208.7 30.4199 201.75 41.2199 201.65C56.2299 201.51 71.5399 201.82 86.6799 201.63C90.1299 201.58 92.5199 202.34 96.0599 200.56C106.74 195.19 99.6799 186.14 97.2599 178.57C92.2499 162.94 95.4199 147.67 106.63 135.73C118.48 123.11 136.68 122.2 135.37 99.5199C133.55 68.0999 88.7599 63.3899 79.2799 92.9099C73.5299 110.81 86.9799 117.83 86.4299 132.01C85.9299 145.17 73.8999 158.1 60.7099 159.23C51.4399 160.02 35.0599 159.92 25.7199 159.23C3.38989 157.58 -8.41011 130.4 6.99989 113.51C13.0499 106.88 17.3499 106.96 24.8499 103.87C29.8199 101.82 25.6699 96.5899 24.4099 93.6399C19.7699 82.7599 18.0799 74.3499 22.9099 62.9999C27.7599 51.5999 41.6799 41.7399 54.2099 41.8699C58.7199 41.9199 66.4499 45.2199 68.2099 38.3899C69.2899 34.1899 68.7799 30.0799 70.5499 25.2499C82.6599 -7.5801 129.77 -8.77009 143.09 23.8999C145.41 29.5999 144.66 33.8199 146.06 38.9099C147.77 45.1199 156.09 41.7999 160.5 41.9099C184.85 42.4999 199.59 67.6699 191.17 89.9499C189.73 93.7699 183.6 101.35 188.93 103.91C192.41 105.58 196.26 105.9 200.11 108.21C215.42 117.41 218.2 138.32 205.59 151.06L205.57 151.04Z" fill="white"/>
</g>
<defs>
<clipPath id="clip0_16907_2445">
<rect width="213.52" height="240.73" fill="white"/>
</clipPath>
</defs>
</svg>
