<svg width="470" height="301" viewBox="0 0 470 301" fill="none" xmlns="http://www.w3.org/2000/svg">
<path d="M38.808 251.8H49.056V291H43.12V255.72L41.384 262.44L30.688 291H23.408L12.656 262.44L10.976 256V291H5.04V251.8H15.288L23.744 275.432L27.048 285.848L30.352 275.432L38.808 251.8ZM59.9659 258.576C57.5019 258.576 56.1019 257.176 56.0459 254.712C55.9899 252.304 57.4459 251.016 59.9659 251.016C62.4299 251.016 63.8299 252.304 63.8859 254.712C63.9419 257.176 62.5419 258.576 59.9659 258.576ZM57.0539 291V264.12H62.7659V291H57.0539ZM85.2661 263.56C91.5941 263.56 94.8981 267.368 94.8981 274.48V291H89.1861V274.872C89.1861 270.84 86.9461 268.768 83.3061 268.768C78.7701 268.768 75.8581 272.128 75.8581 278.344V291H70.1461V264.12H75.8581V270.616C77.1461 266.304 80.0021 263.56 85.2661 263.56ZM122.212 251.8H127.924V291H122.212V285.344C120.364 289.264 117.004 291.56 112.468 291.56C104.74 291.56 99.9241 285.96 99.9241 277.56C99.9241 269.16 104.684 263.56 112.3 263.56C116.892 263.56 120.364 265.856 122.212 269.832V251.8ZM114.036 286.352C119.748 286.352 122.436 283.552 122.436 277.56C122.436 271.568 119.748 268.768 114.036 268.768C108.38 268.768 105.692 271.568 105.692 277.56C105.692 283.552 108.38 286.352 114.036 286.352ZM151.564 264.12V269.216H143.276V291H137.564V269.216H131.852V264.12H137.564V258.52C137.564 254.04 140.532 251.072 145.012 251.072H151.228V256.168H143.276V264.12H151.564ZM173.629 264.12H179.341V291H173.629V284.504C172.341 288.816 169.485 291.56 164.221 291.56C157.893 291.56 154.589 287.752 154.589 280.64V264.12H160.301V280.248C160.301 284.28 162.541 286.352 166.181 286.352C170.717 286.352 173.629 282.992 173.629 276.776V264.12ZM186.663 291V251.8H192.375V291H186.663ZM230.612 286.128C238.676 286.128 242.54 282.88 243.828 274.592L249.652 275.992C247.86 286.128 240.692 291.56 230.612 291.56C219.524 291.56 210.508 283.216 210.508 271.288C210.508 259.36 219.524 251.24 230.612 251.24C240.692 251.24 247.86 256.672 249.652 266.808L243.828 268.208C242.54 259.92 238.676 256.672 230.612 256.672C221.54 256.672 216.668 261.768 216.668 271.288C216.668 280.976 221.54 286.128 230.612 286.128ZM266.745 263.56C274.585 263.56 280.913 269.048 280.913 277.56C280.913 286.072 274.585 291.56 266.745 291.56C258.961 291.56 252.633 286.072 252.633 277.56C252.633 269.048 258.961 263.56 266.745 263.56ZM266.745 286.352C272.457 286.352 275.145 283.552 275.145 277.56C275.145 271.568 272.457 268.768 266.745 268.768C261.089 268.768 258.401 271.568 258.401 277.56C258.401 283.552 261.089 286.352 266.745 286.352ZM320.333 263.56C326.661 263.56 329.965 267.48 329.965 274.76V291H324.253V275.096C324.253 270.896 322.069 268.768 318.429 268.768C313.333 268.768 310.925 272.576 310.925 279.744V291H305.213V274.872C305.213 270.84 302.973 268.768 299.333 268.768C294.797 268.768 291.885 272.128 291.885 278.344V291H286.173V264.12H291.885V270.616C293.173 266.304 296.029 263.56 301.293 263.56C306.445 263.56 309.581 266.08 310.589 270.784C312.157 266.08 315.405 263.56 320.333 263.56ZM352.678 263.56C360.294 263.56 365.054 269.16 365.054 277.56C365.054 285.96 360.238 291.56 352.51 291.56C347.974 291.56 344.614 289.264 342.766 285.344V300.52H337.054V264.12H342.766V269.832C344.614 265.856 348.086 263.56 352.678 263.56ZM350.942 286.352C356.598 286.352 359.286 283.552 359.286 277.56C359.286 271.568 356.598 268.768 350.942 268.768C345.23 268.768 342.542 271.568 342.542 277.56C342.542 283.552 345.23 286.352 350.942 286.352ZM389.142 264.12H394.854V291H389.142V284.504C387.854 288.816 384.998 291.56 379.734 291.56C373.406 291.56 370.102 287.752 370.102 280.64V264.12H375.814V280.248C375.814 284.28 378.054 286.352 381.694 286.352C386.23 286.352 389.142 282.992 389.142 276.776V264.12ZM418.248 269.216H410.072V285.904H417.408V291H411.808C407.328 291 404.36 288.032 404.36 283.552V269.216H398.704V264.12H404.36V255.888H410.072V264.12H418.248V269.216ZM446.015 277C446.015 277.84 446.015 278.288 445.959 279.352H425.911C426.303 284.784 428.599 286.912 433.639 286.912C437.391 286.912 439.015 285.96 440.247 282.712L445.399 284.616C443.495 289.32 439.071 291.56 433.583 291.56C425.407 291.56 420.087 286.072 420.087 277.616C420.087 269.216 425.575 263.56 433.303 263.56C440.807 263.56 446.015 268.768 446.015 277ZM433.359 268.04C428.879 268.04 426.471 270.28 425.967 275.152H440.303C440.079 270 438.007 268.04 433.359 268.04ZM465.276 263.616C466.452 263.616 467.628 263.672 468.468 264.064V269.608C467.684 269.272 466.844 268.936 464.828 268.936C459.732 268.936 456.932 273.024 456.932 279.352V291H451.22V264.12H456.932V271.96C457.772 267.648 459.9 263.616 465.276 263.616Z" fill="#322644"/>
<mask id="mask0_227_5163" style="mask-type:luminance" maskUnits="userSpaceOnUse" x="146" y="4" width="179" height="201">
<path d="M324.041 4H146V204.73H324.041V4Z" fill="white"/>
</mask>
<g mask="url(#mask0_227_5163)">
<path d="M317.411 129.943C315.485 131.894 312.358 134.012 309.798 135.03C304.045 137.314 287.143 137.456 280.705 136.747C277.12 136.356 271.975 133.487 269.449 130.936C267.798 129.276 264.512 123.239 263.036 122.781C256.557 120.746 247.735 127.984 244.775 133.295C238.872 143.877 244.041 153.916 250.954 162.346C256.182 168.725 260.443 172.202 269.032 172.577C274.885 172.828 281.439 172.052 287.393 172.127C289.844 172.161 295.114 172.277 295.489 175.304C295.865 178.331 290.378 186.069 288.41 188.579C282.848 195.691 273.868 203.413 264.487 204.213C245.484 205.839 224.179 202.971 204.934 204.197C192.944 202.07 183.755 192.806 177.651 182.767C174.766 178.022 171.364 172.227 180.369 172.144C192.885 172.027 205.651 172.286 218.276 172.127C221.153 172.086 223.145 172.719 226.097 171.235C235.003 166.757 229.116 159.211 227.098 152.899C222.92 139.866 225.564 127.133 234.911 117.177C244.792 106.654 259.968 105.895 258.875 86.9838C257.358 60.7846 220.01 56.8572 212.105 81.4722C207.311 96.398 218.526 102.251 218.067 114.075C217.65 125.049 207.619 135.83 196.621 136.772C188.891 137.431 175.233 137.348 167.445 136.772C148.825 135.397 138.986 112.733 151.835 98.6493C156.88 93.121 160.466 93.1877 166.72 90.6111C170.864 88.9017 167.403 84.5407 166.353 82.0809C162.484 73.0087 161.074 65.9961 165.102 56.532C169.146 47.0263 180.753 38.8046 191.201 38.913C194.962 38.9547 201.407 41.7064 202.875 36.0113C203.775 32.5092 203.35 29.0821 204.826 25.0546C214.924 -2.3203 254.206 -3.31256 265.313 23.9289C267.247 28.6818 266.622 32.2006 267.789 36.4449C269.215 41.623 276.153 38.8547 279.83 38.9464C300.134 39.4384 312.425 60.4261 305.404 79.004C304.203 82.1893 299.092 88.5098 303.536 90.6445C306.438 92.037 309.648 92.3038 312.858 94.23C325.624 101.901 327.942 119.337 317.428 129.96L317.411 129.943Z" fill="#322644"/>
</g>
</svg>
